HIERARCHY
ROOT Hips
{
 OFFSET 0.000000 0.000000 0.000000
 CHANNELS 6 Xposition Yposition Zposition Yrotation Xrotation Zrotation
 JOINT Chest
 {
  OFFSET 0.000000 9.857222 0.000240
  CHANNELS 3 Yrotation Xrotation Zrotation
  JOINT Chest2
  {
   OFFSET 0.000000 10.876940 -0.000436
   CHANNELS 3 Yrotation Xrotation Zrotation
   JOINT Chest3
   {
    OFFSET 0.000000 9.827798 0.000000
    CHANNELS 3 Yrotation Xrotation Zrotation
    JOINT Chest4
    {
     OFFSET 0.000000 9.827798 0.000000
     CHANNELS 3 Yrotation Xrotation Zrotation
     JOINT Neck
     {
      OFFSET 0.000000 13.831992 0.000000
      CHANNELS 3 Yrotation Xrotation Zrotation
      JOINT Head
      {
       OFFSET 0.000000 9.147643 -0.001036
       CHANNELS 3 Yrotation Xrotation Zrotation
       End Site
       {
        OFFSET 0.000000 17.515799 -0.000541
       }
      }
     }
     JOINT RightCollar
     {
      OFFSET -3.001579 7.717577 0.000000
      CHANNELS 3 Yrotation Xrotation Zrotation
      JOINT RightShoulder
      {
       OFFSET -14.002642 0.000000 0.000000
       CHANNELS 3 Yrotation Xrotation Zrotation
       JOINT RightElbow
       {
        OFFSET -30.053852 0.000000 0.000000
        CHANNELS 3 Yrotation Xrotation Zrotation
        JOINT RightWrist
        {
         OFFSET -24.564923 0.000000 -0.000000
         CHANNELS 3 Yrotation Xrotation Zrotation
         End Site
         {
          OFFSET -18.334355 0.000000 0.000000
         }
        }
       }
      }
     }
     JOINT LeftCollar
     {
      OFFSET 3.001579 7.717577 0.000000
      CHANNELS 3 Yrotation Xrotation Zrotation
      JOINT LeftShoulder
      {
       OFFSET 14.002642 0.000000 0.000000
       CHANNELS 3 Yrotation Xrotation Zrotation
       JOINT LeftElbow
       {
        OFFSET 30.053852 0.000000 0.000000
        CHANNELS 3 Yrotation Xrotation Zrotation
        JOINT LeftWrist
        {
         OFFSET 24.564923 0.000000 -0.000000
         CHANNELS 3 Yrotation Xrotation Zrotation
         End Site
         {
          OFFSET 18.334355 0.000000 0.000000
         }
        }
       }
      }
     }
    }
   }
  }
 }
 JOINT RightHip
 {
  OFFSET -8.003235 -0.001175 -0.000120
  CHANNELS 3 Yrotation Xrotation Zrotation
  JOINT RightKnee
  {
   OFFSET 0.000000 -41.759727 0.000113
   CHANNELS 3 Yrotation Xrotation Zrotation
   JOINT RightAnkle
   {
    OFFSET 0.000000 -40.728748 0.000159
    CHANNELS 3 Yrotation Xrotation Zrotation
    JOINT RightToe
    {
     OFFSET 0.000000 -6.515296 14.732841
     CHANNELS 3 Yrotation Xrotation Zrotation
     End Site
     {
      OFFSET 0.000000 -1.502839 6.412115
     }
    }
   }
  }
 }
 JOINT LeftHip
 {
  OFFSET 8.003235 -0.001175 -0.000120
  CHANNELS 3 Yrotation Xrotation Zrotation
  JOINT LeftKnee
  {
   OFFSET 0.000000 -41.759727 0.000113
   CHANNELS 3 Yrotation Xrotation Zrotation
   JOINT LeftAnkle
   {
    OFFSET 0.000000 -40.728748 0.000159
    CHANNELS 3 Yrotation Xrotation Zrotation
    JOINT LeftToe
    {
     OFFSET 0.000000 -6.515296 14.732841
     CHANNELS 3 Yrotation Xrotation Zrotation
     End Site
     {
      OFFSET 0.000000 -1.502839 6.412115
     }
    }
   }
  }
 }
}
MOTION
Frames: 16
Frame Time: 0.016667
-7.401660 90.333146 16.991419 -35.735402 -5.803925 -0.000697 4.179630 -4.271715 -0.291557 1.836097 -1.940346 -0.077628 1.836097 -1.940346 -0.077628 1.376695 -1.455509 -0.052384 4.667735 27.657446 1.050638 8.085841 15.218344 0.903013 1.969591 22.778194 9.278923 23.314789 -3.866292 52.931571 129.419206 -18.154896 -6.135352 6.609408 -3.613105 -14.227046 -11.971767 27.626287 -11.128930 -20.057583 15.171664 -59.906189 -134.781421 16.133640 17.769565 5.972365 4.100430 16.318187 -10.182511 6.439163 -2.649856 7.114914 6.027968 -0.887081 0.554065 -6.203750 2.710552 -0.035045 0.260990 -0.027985 -29.430719 16.485537 -2.257843 34.949072 1.119192 -8.917632 6.028997 -9.545993 1.067477 0.133006 0.348331 -0.026911
-7.366527 90.362434 16.903046 -35.906686 -6.230356 0.039387 4.180063 -4.436466 -0.265877 1.836691 -2.005485 -0.068782 1.836691 -2.005485 -0.068782 1.377152 -1.504336 -0.045552 4.825563 27.884287 1.097477 8.356426 15.641236 0.966820 2.711525 23.533340 9.592070 27.175184 -6.796039 48.138446 126.091550 -18.127339 -6.893863 6.407312 -3.302916 -14.364916 -12.550455 28.003856 -11.492041 -22.204146 13.552049 -55.211949 -130.535040 16.868957 19.150431 6.986295 4.381642 16.506998 -10.205739 6.816705 -2.739501 7.234969 5.928192 -0.899708 0.538384 -6.042860 2.738658 -0.024841 0.215458 -0.054336 -28.624699 16.872069 -2.410043 34.323283 0.879643 -8.733793 6.124853 -9.301230 1.018572 0.106613 0.291034 -0.039304
-7.331599 90.395457 16.810062 -36.074515 -6.731486 0.077840 4.213485 -4.547481 -0.267454 1.846223 -2.053125 -0.065762 1.846223 -2.053125 -0.065762 1.384298 -1.540059 -0.043112 4.978134 28.065892 1.185205 8.609607 15.977610 1.102468 3.774660 24.082035 9.925638 30.354823 -9.469230 43.896329 122.367519 -18.377992 -6.828691 6.118246 -2.823758 -15.120604 -13.853319 27.660641 -12.247913 -22.987298 11.984746 -50.325685 -126.246875 16.009360 20.099843 8.011605 4.865230 16.724253 -10.059054 7.245742 -2.790208 7.319039 5.889598 -0.947023 0.428615 -5.873847 2.796431 -0.011760 0.138295 -0.083061 -28.082424 17.338699 -2.664635 33.815402 0.595447 -8.562627 6.334742 -9.025615 0.985246 0.040123 0.206884 -0.061704
-7.298136 90.431825 16.699671 -36.200053 -7.239049 0.106116 4.257970 -4.658360 -0.291408 1.867832 -2.092507 -0.070941 1.867832 -2.092507 -0.070941 1.400475 -1.569614 -0.046803 5.096550 28.204297 1.305974 8.795715 16.230703 1.301503 5.124775 24.860631 10.312333 33.566245 -12.410213 39.989566 117.567717 -17.507995 -5.815903 5.667303 -1.708994 -16.477589 -14.806323 27.860869 -12.652984 -24.419468 9.989503 -45.479186 -121.885726 14.361035 21.120797 9.281464 5.821613 16.994525 -9.759832 7.652202 -2.786225 7.327432 5.926653 -1.012020 0.275732 -5.736098 2.858460 0.002468 0.062206 -0.104897 -27.956157 17.785679 -2.984449 33.613529 0.345519 -8.442243 6.571357 -8.773478 0.972833 -0.016895 0.131639 -0.077128
-7.259198 90.469174 16.571546 -36.261625 -7.698772 0.129229 4.309394 -4.759803 -0.352484 1.894750 -2.128475 -0.088895 1.894750 -2.128475 -0.088895 1.420589 -1.596650 -0.060063 5.167702 28.284979 1.449050 8.893565 16.373883 1.546189 6.316786 25.691162 10.580960 37.539612 -14.764529 36.249697 112.363996 -14.694909 -5.428208 5.049686 -1.325918 -17.568029 -15.469912 28.422008 -12.762833 -26.449376 7.618580 -40.591979 -116.972984 12.496307 21.759654 10.785047 7.288074 17.246496 -9.365900 7.984797 -2.724173 7.275146 6.031041 -1.088940 0.095180 -5.643895 2.901378 0.014237 0.004864 -0.112050 -28.200878 18.130965 -3.321901 33.643427 0.171171 -8.331318 6.755772 -8.576563 0.951102 -0.057811 0.093697 -0.083311
-7.223686 90.499620 16.413783 -36.167105 -8.015601 0.134939 4.319219 -4.858508 -0.416484 1.897308 -2.170737 -0.111004 1.897308 -2.170737 -0.111004 1.422416 -1.628416 -0.076502 5.180217 28.311646 1.558812 8.893884 16.417207 1.740068 7.302220 26.355464 10.688110 42.302208 -16.039453 32.691746 107.162013 -11.809971 -6.589475 4.937395 -1.264170 -17.620862 -16.421627 28.899961 -13.088227 -28.799284 5.479319 -35.569409 -110.574588 12.120502 22.025176 12.151981 8.009759 17.310735 -9.051266 8.167069 -2.640554 7.151265 6.172578 -1.145674 -0.036490 -5.585619 2.913545 0.026553 -0.044286 -0.100995 -28.882504 18.238989 -3.647560 33.879252 0.126361 -8.169859 7.050145 -8.445560 0.868479 -0.071827 0.081193 -0.076211
-7.173361 90.518872 16.253388 -35.991888 -8.226055 0.156137 4.287987 -4.891925 -0.495178 1.871143 -2.196233 -0.132244 1.871143 -2.196233 -0.132244 1.402710 -1.647598 -0.092445 5.154952 28.288230 1.615294 8.837540 16.369823 1.843832 8.057472 26.946677 10.574264 48.000403 -16.530849 29.225483 101.795351 -9.489368 -8.538945 5.077776 -0.804647 -17.665846 -17.248134 29.273048 -13.301225 -32.224383 3.811824 -30.816931 -102.070908 13.566930 22.557195 12.925097 7.842808 17.203825 -8.850087 8.216560 -2.595164 6.972862 6.339187 -1.146566 -0.082946 -5.532579 2.873432 0.031730 -0.094516 -0.079205 -29.590820 18.191931 -3.886567 34.038212 0.185224 -8.020684 7.375712 -8.376484 0.782823 -0.091848 0.089324 -0.073535
-7.134470 90.530619 16.084120 -35.769004 -8.433434 0.149944 4.346758 -4.839601 -0.613093 1.885773 -2.182775 -0.186377 1.885773 -2.182775 -0.186377 1.413493 -1.637675 -0.133029 5.059964 28.233365 1.704311 8.650488 16.260656 2.017275 8.425621 27.582854 10.447649 54.336095 -16.286111 25.774627 95.710174 -6.675377 -11.233010 5.132055 0.035586 -18.329859 -17.882939 29.697014 -12.972426 -36.796899 2.535919 -26.321500 -91.972522 15.500158 23.926927 13.185793 7.582401 16.912627 -8.764543 8.262601 -2.550018 6.784807 6.518687 -1.126436 -0.075237 -5.521419 2.807296 0.028204 -0.116955 -0.054048 -30.152930 18.133506 -4.005958 34.158228 0.353884 -7.886224 7.542392 -8.352538 0.666307 -0.055701 0.104597 -0.049901
-7.082399 90.539234 15.909441 -35.475381 -8.613487 0.158650 4.357090 -4.810770 -0.748228 1.897715 -2.158109 -0.239788 1.897715 -2.158109 -0.239788 1.422271 -1.619345 -0.173118 4.962850 28.236293 1.781989 8.462224 16.259638 2.174506 8.781197 28.035394 10.320143 60.478261 -15.197132 22.712907 88.645524 -3.150579 -14.622670 4.998823 0.725611 -19.462039 -18.302102 30.383241 -12.414689 -42.186098 1.167270 -22.162593 -80.957911 16.993372 25.464443 13.172820 7.404364 16.599344 -8.885313 8.277898 -2.549495 6.648188 6.676514 -1.105587 -0.022982 -5.511209 2.728968 0.019365 -0.123965 -0.027599 -30.723721 18.011871 -4.069421 34.544690 0.611697 -7.802743 7.396201 -8.303103 0.591680 -0.035602 0.100407 -0.038667
-7.023173 90.546761 15.737105 -35.143094 -8.819906 0.171073 4.317303 -4.835225 -0.856570 1.890270 -2.154964 -0.279990 1.890270 -2.154964 -0.279990 1.416548 -1.617107 -0.203302 4.901282 28.367923 1.854871 8.339230 16.498681 2.323416 9.132522 28.630418 10.087192 66.178284 -13.661588 20.027963 80.839663 -0.227916 -18.375034 4.906892 1.257515 -20.362027 -18.924890 31.387845 -12.256138 -47.662491 -0.055857 -18.022823 -69.642029 17.362601 26.487875 13.096839 7.761365 16.517693 -9.201856 8.326888 -2.602432 6.581898 6.800948 -1.075383 0.053467 -5.491506 2.645354 0.011789 -0.124716 -0.002256 -31.127042 17.892995 -4.096909 34.926178 0.918692 -7.695253 7.068764 -8.249616 0.519561 -0.019076 0.094189 -0.031767
-6.966125 90.554220 15.571343 -34.802841 -9.031838 0.165329 4.300963 -4.891632 -0.984203 1.890608 -2.171435 -0.331770 1.890608 -2.171435 -0.331770 1.416607 -1.629622 -0.242080 4.883746 28.602560 1.995148 8.282602 16.926439 2.588808 9.543950 29.576775 9.957021 71.362632 -12.654839 17.197856 72.392896 1.770953 -20.919017 4.785960 1.857516 -20.915162 -20.031170 32.291491 -12.309149 -52.531784 -1.065735 -13.996526 -58.488051 16.959257 26.090879 13.386514 8.394291 16.612479 -9.670569 8.402026 -2.660840 6.619333 6.882327 -1.062761 0.130637 -5.454454 2.574458 0.006094 -0.123158 0.016583 -31.042423 17.844558 -3.975097 34.919327 1.191516 -7.597130 6.692463 -8.177420 0.450675 0.000816 0.090145 -0.022069
-6.907972 90.558298 15.421020 -34.484091 -9.264730 0.149270 4.230905 -4.995797 -1.060209 1.865028 -2.213811 -0.356946 1.865028 -2.213811 -0.356946 1.397304 -1.661467 -0.260921 4.930126 28.952076 2.105642 8.347821 17.570041 2.795485 10.147522 30.693070 9.771968 76.158109 -11.838323 14.379159 62.300279 4.888400 -22.407494 4.649002 1.542243 -21.251154 -21.602305 33.047853 -12.730949 -56.975671 -1.129610 -10.465092 -47.332468 15.655451 24.775820 14.069063 8.937037 17.015117 -10.216524 8.516818 -2.715580 6.749132 6.935276 -1.081848 0.181099 -5.407208 2.531023 0.003444 -0.120999 0.025646 -30.728453 17.848591 -3.829833 34.741625 1.422316 -7.479266 6.325375 -8.099002 0.392875 -0.002195 0.092737 -0.021563
-6.858219 90.562539 15.303203 -34.223577 -9.561404 0.123785 4.074854 -5.137988 -1.022140 1.793864 -2.281178 -0.331901 1.793864 -2.281178 -0.331901 1.343981 -1.711876 -0.242196 5.035211 29.401026 2.115089 8.539006 18.404060 2.818501 10.964637 31.945945 9.426250 80.678394 -11.010002 11.793024 51.120761 9.049545 -22.789531 4.276787 1.552135 -21.934131 -23.344227 33.871846 -13.492042 -60.297667 0.170175 -7.004757 -37.677995 13.043124 22.665059 14.784538 9.191505 17.416620 -10.726671 8.717715 -2.776777 6.932497 6.971823 -1.113592 0.190517 -5.358324 2.513077 0.005855 -0.123699 0.029486 -30.298214 17.942555 -3.743019 34.462615 1.608326 -7.316259 6.043464 -8.034578 0.325753 -0.025374 0.098298 -0.028440
-6.806612 90.566206 15.236955 -34.017507 -9.871653 0.113335 3.964979 -5.280533 -0.977624 1.732812 -2.357982 -0.297418 1.732812 -2.357982 -0.297418 1.298278 -1.769347 -0.216345 5.140946 29.870317 2.107185 8.735399 19.276716 2.813448 11.600653 33.380844 8.959050 84.977466 -9.277041 8.895506 39.940248 12.438956 -22.478185 3.644245 1.676772 -22.820121 -25.387772 34.614290 -14.399998 -62.222423 3.577372 -3.787682 -30.184112 8.306679 20.275712 15.374203 9.551837 17.778564 -11.051470 8.953091 -2.844537 7.032654 7.018216 -1.157032 0.160654 -5.331973 2.526758 0.015070 -0.129624 0.030948 -29.842223 18.086888 -3.751992 33.993809 1.693944 -7.142074 5.991684 -7.978890 0.297772 -0.099688 0.104316 -0.056154
-6.750903 90.565170 15.214573 -33.839219 -10.111413 0.102835 3.884203 -5.447977 -0.948253 1.680500 -2.448561 -0.273562 1.680500 -2.448561 -0.273562 1.259087 -1.837189 -0.198406 5.256345 30.320328 2.116863 8.945987 20.112858 2.838315 11.919731 34.899209 8.357406 89.024524 -6.414705 6.054154 29.515523 13.673425 -21.333484 3.191155 1.602140 -23.319418 -27.745872 35.012584 -15.443161 -62.780115 9.265065 -1.246179 -24.359925 1.766036 18.244914 15.794376 10.127608 17.598499 -11.153045 9.136027 -2.878531 7.025200 7.089224 -1.215335 0.081937 -5.339013 2.576566 0.029122 -0.133168 0.030875 -29.438146 18.215167 -3.798457 33.491990 1.691285 -6.975204 6.052943 -7.930061 0.283190 -0.174183 0.118815 -0.078170
-6.690984 90.559528 15.228675 -33.716187 -10.282944 0.109739 3.736579 -5.574642 -0.916071 1.599155 -2.520079 -0.249715 1.599155 -2.520079 -0.249715 1.198143 -1.890728 -0.180659 5.414948 30.675476 2.089611 9.238316 20.775960 2.786175 12.119004 36.302523 7.600810 92.772230 -3.035364 4.010593 20.486265 13.054785 -19.419820 3.242295 1.656219 -23.093651 -29.879273 35.269211 -16.410342 -62.258206 15.684255 1.212147 -19.588558 -4.588897 15.588279 15.755490 9.658400 17.325268 -11.092669 9.271552 -2.909169 6.936572 7.151036 -1.272647 0.000230 -5.349345 2.646379 0.044809 -0.140490 0.029589 -29.076411 18.332123 -3.856407 33.004643 1.617913 -6.856600 6.174863 -7.887048 0.284239 -0.242508 0.143080 -0.094235
